<svg width="108" height="108" viewBox="0 0 108 108" fill="none" xmlns="http://www.w3.org/2000/svg">
<path fill-rule="evenodd" clip-rule="evenodd" d="M5.65108 0.780506C0.419084 2.01751 -0.00691731 2.9815 8.26941e-05 13.5855C0.00608269 22.5255 0.254084 23.7605 3.17208 29.3525C4.91408 32.6895 8.36908 37.6395 10.8511 40.3525L15.3641 45.2855L29.9821 30.7855L44.5991 16.2855L39.4321 11.4945C29.4101 2.2015 16.6961 -1.83049 5.65108 0.780506ZM32.4921 34.2875L17.0141 49.7895L39.9961 72.7875C52.6361 85.4365 63.6791 95.7855 64.5361 95.7855C66.5591 95.7855 68.4601 97.7095 67.8951 99.1835C67.6511 99.8185 69.2271 102.072 71.3961 104.19C74.4311 107.154 75.8771 107.907 77.6711 107.456C80.2251 106.816 107.494 79.8435 107.494 77.9585C107.494 76.0705 100.413 68.7855 98.5781 68.7855C96.4671 68.7855 94.4941 66.8725 94.4941 64.8275C94.4941 63.1455 50.6371 18.7855 48.9741 18.7855C48.4221 18.7855 41.0051 25.7615 32.4921 34.2875Z" fill="white"/>
</svg>
