<svg width="13" height="26" viewBox="0 0 13 26" fill="none" xmlns="http://www.w3.org/2000/svg">
<path fill-rule="evenodd" clip-rule="evenodd" d="M0.518567 0.0772629C-0.00885541 0.338767 -0.153846 1.27117 0.253157 1.78411C0.362946 1.92233 2.75634 4.48743 5.57182 7.4841C8.38738 10.4809 10.6909 12.9616 10.6909 12.997C10.6909 13.0324 8.38738 15.5132 5.57182 18.51C2.75634 21.5066 0.362946 24.0717 0.253157 24.21C-0.0492854 24.5912 -0.0829194 25.0791 0.164019 25.5045C0.40172 25.9141 0.80428 26.0908 1.18941 25.9547C1.3446 25.8999 3.65627 23.513 7.00561 19.9494C10.0629 16.6965 12.6624 13.9122 12.7822 13.7621C12.9514 13.5501 13 13.3809 13 13.0045C13 12.7235 12.9451 12.4421 12.8693 12.3351C12.7974 12.2335 10.3272 9.58772 7.37985 6.45547C4.43254 3.32333 1.87908 0.60383 1.70551 0.412102C1.36551 0.0366795 0.877821 -0.100938 0.518567 0.0772629Z" fill="white"/>
</svg>
