<svg width="232" height="143" viewBox="0 0 232 143" fill="none" xmlns="http://www.w3.org/2000/svg">
<g filter="url(#filter0_d_304_25)">
<path d="M26.5484 71V25.9091H37.4468V44.0071H55.2146V25.9091H66.091V71H55.2146V52.88H37.4468V71H26.5484ZM82.6808 71H70.9678L86.1816 25.9091H100.691L115.905 71H104.191L93.6013 37.2699H93.249L82.6808 71ZM81.1176 53.2543H105.601V61.5327H81.1176V53.2543ZM159.135 25.9091V71H149.888L131.944 44.9759H131.658V71H120.759V25.9091H130.139L147.884 51.8892H148.259V25.9091H159.135ZM182.655 71H165.988V25.9091H182.633C187.227 25.9091 191.183 26.8118 194.5 28.6172C197.832 30.4079 200.4 32.9912 202.206 36.3672C204.011 39.7285 204.914 43.7502 204.914 48.4325C204.914 53.1295 204.011 57.166 202.206 60.5419C200.415 63.9179 197.854 66.5085 194.522 68.3139C191.19 70.1046 187.234 71 182.655 71ZM176.886 61.7088H182.236C184.761 61.7088 186.897 61.2831 188.643 60.4318C190.405 59.5658 191.733 58.1641 192.628 56.2266C193.539 54.2744 193.994 51.6764 193.994 48.4325C193.994 45.1887 193.539 42.6053 192.628 40.6825C191.718 38.745 190.375 37.3506 188.599 36.4993C186.838 35.6333 184.666 35.2003 182.082 35.2003H176.886V61.7088ZM25.5038 118V89.6364H32.3593V112.433H44.159V118H25.5038ZM54.6141 118H47.2462L56.8162 89.6364H65.9429L75.5129 118H68.145L61.4834 96.7827H61.2618L54.6141 118ZM53.6308 106.837H69.0314V112.045H53.6308V106.837ZM78.9567 118V89.6364H90.7841C92.9077 89.6364 94.685 89.9364 96.1161 90.5366C97.5565 91.1367 98.6367 91.9769 99.3569 93.0572C100.086 94.1374 100.451 95.3885 100.451 96.8104C100.451 97.8906 100.225 98.8555 99.7724 99.7049C99.32 100.545 98.6967 101.242 97.9027 101.796C97.1087 102.35 96.19 102.738 95.1467 102.96V103.237C96.2916 103.292 97.3487 103.601 98.3182 104.164C99.2969 104.728 100.082 105.512 100.673 106.519C101.264 107.516 101.559 108.698 101.559 110.064C101.559 111.588 101.171 112.95 100.396 114.15C99.62 115.341 98.4982 116.283 97.0302 116.975C95.5622 117.658 93.7802 118 91.6843 118H78.9567ZM85.8122 112.474H90.0501C91.5366 112.474 92.6307 112.192 93.3324 111.629C94.0433 111.066 94.3988 110.281 94.3988 109.275C94.3988 108.545 94.228 107.918 93.8864 107.391C93.5448 106.856 93.06 106.445 92.4322 106.159C91.8043 105.863 91.0519 105.716 90.1747 105.716H85.8122V112.474ZM85.8122 101.298H89.6069C90.3548 101.298 91.0195 101.173 91.6012 100.924C92.1829 100.674 92.6353 100.314 92.9585 99.8434C93.2909 99.3725 93.457 98.8047 93.457 98.1399C93.457 97.1889 93.12 96.4411 92.446 95.8963C91.772 95.3516 90.8626 95.0792 89.7177 95.0792H85.8122V101.298ZM112.101 89.6364V118H105.245V89.6364H112.101ZM116.794 118V89.6364H128.511C130.635 89.6364 132.467 90.0195 134.009 90.7859C135.56 91.543 136.756 92.6325 137.596 94.0543C138.436 95.467 138.856 97.1428 138.856 99.0817C138.856 101.048 138.427 102.719 137.568 104.095C136.71 105.462 135.491 106.505 133.912 107.225C132.333 107.936 130.464 108.292 128.303 108.292H120.894V102.89H127.029C128.063 102.89 128.926 102.756 129.619 102.489C130.321 102.212 130.851 101.796 131.212 101.242C131.572 100.679 131.752 99.9588 131.752 99.0817C131.752 98.2045 131.572 97.4798 131.212 96.9073C130.851 96.3256 130.321 95.8917 129.619 95.6055C128.917 95.31 128.054 95.1623 127.029 95.1623H123.65V118H116.794ZM132.763 105.037L139.826 118H132.347L125.423 105.037H132.763ZM149.862 89.6364V118H143.007V89.6364H149.862ZM178.695 89.6364V118H172.879L161.591 101.63H161.411V118H154.556V89.6364H160.456L171.618 105.979H171.854V89.6364H178.695ZM182.468 95.2038V89.6364H206.441V95.2038H197.841V118H191.082V95.2038H182.468Z" fill="white"/>
</g>
<defs>
<filter id="filter0_d_304_25" x="0.503906" y="0.909088" width="230.938" height="142.091" filterUnits="userSpaceOnUse" color-interpolation-filters="sRGB">
<feFlood flood-opacity="0" result="BackgroundImageFix"/>
<feColorMatrix in="SourceAlpha" type="matrix" values="0 0 0 0 0 0 0 0 0 0 0 0 0 0 0 0 0 0 127 0" result="hardAlpha"/>
<feOffset/>
<feGaussianBlur stdDeviation="12.5"/>
<feComposite in2="hardAlpha" operator="out"/>
<feColorMatrix type="matrix" values="0 0 0 0 1 0 0 0 0 1 0 0 0 0 1 0 0 0 0.7 0"/>
<feBlend mode="normal" in2="BackgroundImageFix" result="effect1_dropShadow_304_25"/>
<feBlend mode="normal" in="SourceGraphic" in2="effect1_dropShadow_304_25" result="shape"/>
</filter>
</defs>
</svg>
